<svg width="48" height="46" viewBox="0 0 48 46" fill="none" xmlns="http://www.w3.org/2000/svg">
<path d="M6.5 23.1023C6.50205 31.5168 12.762 38.6814 21.2643 40V28.0455H16.8246V23.1023H21.2696V19.3393C21.0708 17.5562 21.6939 15.7791 22.9698 14.49C24.2457 13.2009 26.0422 12.5334 27.8721 12.6685C29.1854 12.6892 30.4954 12.8036 31.7919 13.0106V17.2166H29.58C28.8184 17.1191 28.0528 17.365 27.4988 17.8848C26.9448 18.4047 26.6623 19.1424 26.7311 19.89V23.1023H31.5802L30.805 28.0472H26.7311V40C35.926 38.5796 42.3738 30.3714 41.4035 21.3218C40.4329 12.2723 32.3838 5.54939 23.0874 6.02361C13.7909 6.49784 6.50149 14.0032 6.5 23.1023Z" fill="white" fill-opacity="0.7"/>
</svg>
