<svg width="26" height="23" viewBox="0 0 26 23" fill="none" xmlns="http://www.w3.org/2000/svg">
<path d="M13.129 22.75C11.2156 22.7548 9.32624 22.37 7.60607 21.625C6.97652 21.3528 6.37333 21.0348 5.80265 20.6744L5.62927 20.5619C4.05975 19.5321 2.77654 18.1962 1.87816 16.657C0.948913 15.0639 0.466951 13.2946 0.473329 11.5C0.473329 5.28679 6.13948 0.25 13.129 0.25C20.1184 0.25 25.7845 5.28679 25.7845 11.5C25.7909 13.2937 25.3094 15.0622 24.381 16.6548C23.4839 18.1931 22.2025 19.5285 20.635 20.5585C20.0437 20.9433 19.4161 21.282 18.7594 21.571L18.6582 21.616C16.9369 22.3649 15.0454 22.7529 13.129 22.75ZM13.129 17.125C11.2325 17.1217 9.49385 18.0633 8.62737 19.5629C11.464 20.8119 14.7939 20.8119 17.6305 19.5629V19.5573C16.763 18.0593 15.0243 17.1198 13.129 17.125ZM13.129 14.875C15.8703 14.8782 18.398 16.1914 19.7466 18.313L19.7655 18.2984L19.7833 18.2849L19.7617 18.3018L19.7491 18.3108C22.9497 15.8527 24.0941 11.8851 22.6189 8.36137C21.1437 4.83762 17.3598 2.50036 13.1302 2.50036C8.90062 2.50036 5.11671 4.83762 3.64152 8.36137C2.16634 11.8851 3.31077 15.8527 6.51136 18.3108C7.86078 16.1901 10.3882 14.8779 13.129 14.875ZM13.129 13.75C10.3332 13.75 8.06673 11.7352 8.06673 9.25C8.06673 6.76472 10.3332 4.75 13.129 4.75C15.9247 4.75 18.1912 6.76472 18.1912 9.25C18.1912 10.4435 17.6579 11.5881 16.7085 12.432C15.7592 13.2759 14.4716 13.75 13.129 13.75ZM13.129 7C11.731 7 10.5978 8.00736 10.5978 9.25C10.5978 10.4927 11.731 11.5 13.129 11.5C14.5269 11.5 15.6601 10.4927 15.6601 9.25C15.6601 8.00736 14.5269 7 13.129 7Z" fill="white"/>
</svg>
