<svg width="26" height="23" viewBox="0 0 26 23" fill="none" xmlns="http://www.w3.org/2000/svg">
<path d="M13.0001 22.75C11.1103 22.7548 9.24415 22.37 7.54513 21.625C6.92331 21.3528 6.32754 21.0348 5.76388 20.6744L5.59263 20.5619C4.0424 19.5321 2.77496 18.1962 1.88762 16.657C0.969799 15.0639 0.493762 13.2946 0.500062 11.5C0.500062 5.28679 6.09656 0.25 13.0001 0.25C19.9036 0.25 25.5001 5.28679 25.5001 11.5C25.5064 13.2937 25.0309 15.0622 24.1139 16.6548C23.2278 18.1931 21.9621 19.5285 20.4139 20.5585C19.8299 20.9433 19.21 21.282 18.5614 21.571L18.4614 21.616C16.7613 22.3649 14.893 22.7529 13.0001 22.75ZM13.0001 17.125C11.127 17.1217 9.4097 18.0633 8.55387 19.5629C11.3556 20.8119 14.6446 20.8119 17.4464 19.5629V19.5573C16.5895 18.0593 14.8721 17.1198 13.0001 17.125ZM13.0001 14.875C15.7078 14.8782 18.2044 16.1914 19.5364 18.313L19.5551 18.2984L19.5726 18.2849L19.5514 18.3018L19.5389 18.3108C22.7001 15.8527 23.8305 11.8851 22.3734 8.36137C20.9164 4.83762 17.179 2.50036 13.0014 2.50036C8.82376 2.50036 5.08636 4.83762 3.62931 8.36137C2.17226 11.8851 3.30262 15.8527 6.46387 18.3108C7.7967 16.1901 10.2931 14.8779 13.0001 14.875ZM13.0001 13.75C10.2387 13.75 8.00013 11.7352 8.00013 9.25C8.00013 6.76472 10.2387 4.75 13.0001 4.75C15.7615 4.75 18.0001 6.76472 18.0001 9.25C18.0001 10.4435 17.4734 11.5881 16.5356 12.432C15.598 13.2759 14.3263 13.75 13.0001 13.75ZM13.0001 7C11.6194 7 10.5001 8.00736 10.5001 9.25C10.5001 10.4927 11.6194 11.5 13.0001 11.5C14.3809 11.5 15.5001 10.4927 15.5001 9.25C15.5001 8.00736 14.3809 7 13.0001 7Z" fill="white"/>
</svg>
