<svg width="46" height="42" viewBox="0 0 46 42" fill="none" xmlns="http://www.w3.org/2000/svg">
<g clip-path="url(#clip0_74_109)">
<path d="M17.9902 42C13.2096 42 12.646 41.9755 10.7804 41.8963C9.32551 41.8499 7.8895 41.563 6.53413 41.048C4.18909 40.1628 2.33481 38.3634 1.4231 36.0883C0.912587 34.7687 0.637236 33.3746 0.608828 31.9655C0.5 30.1596 0.5 29.5676 0.5 24.9661C0.5 20.3155 0.525264 19.7726 0.608828 17.9723C0.637857 16.5651 0.913199 15.1729 1.4231 13.8552C2.33381 11.5771 4.19111 9.77611 6.53996 8.89355C7.89769 8.39626 9.33325 8.12846 10.7843 8.1018C12.6402 8 13.2504 8 17.9902 8C22.8099 8 23.3637 8.02451 25.2002 8.1018C26.6548 8.12869 28.0942 8.39646 29.4562 8.89355C31.8043 9.77711 33.6612 11.5777 34.573 13.8552C35.0921 15.1921 35.3688 16.606 35.3912 18.0345C35.5 19.8404 35.5 20.4305 35.5 25.0302C35.5 29.6298 35.4728 30.2331 35.3912 32.0183C35.3622 33.4287 35.0861 34.8241 34.575 36.1448C33.6608 38.4215 31.8037 40.2216 29.4562 41.1064C28.0962 41.6007 26.6599 41.8679 25.208 41.8963C23.3521 42 22.7438 42 17.9902 42ZM17.9242 10.9841C13.1707 10.9841 12.6771 11.0068 10.8212 11.0878C9.71344 11.1021 8.6164 11.3004 7.57771 11.6741C6.04393 12.2434 4.83025 13.4159 4.23707 14.9014C3.84883 15.9199 3.64437 16.9957 3.63269 18.0816C3.52969 19.9083 3.52969 20.3871 3.52969 24.9661C3.52969 29.4903 3.54718 30.0389 3.63269 31.8543C3.6501 32.9292 3.85443 33.9935 4.23707 35.0024C4.83112 36.487 6.04459 37.6586 7.57771 38.2279C8.6157 38.6041 9.71317 38.8025 10.8212 38.8141C12.7024 38.9197 13.1979 38.9197 17.9242 38.9197C22.6913 38.9197 23.1849 38.8971 25.0253 38.8141C26.1338 38.8011 27.2316 38.6028 28.2707 38.2279C29.7951 37.6537 31.0009 36.4847 31.5939 35.0062C31.9814 33.9869 32.1856 32.9105 32.1982 31.8241H32.2196C32.3032 30.022 32.3032 29.5412 32.3032 24.9359C32.3032 20.3306 32.2818 19.8461 32.1982 18.0458C32.1807 16.9721 31.9763 15.909 31.5939 14.9014C31.0023 13.4208 29.7962 12.2496 28.2707 11.6741C27.2318 11.2985 26.1338 11.1001 25.0253 11.0878C23.1461 10.9841 22.6544 10.9841 17.9242 10.9841ZM17.9902 33.6734C14.3561 33.6757 11.0785 31.554 9.686 28.298C8.29347 25.0418 9.06032 21.2926 11.6289 18.7988C14.1975 16.3051 18.0619 15.558 21.4198 16.9059C24.7777 18.2539 26.9677 21.4314 26.9687 24.9566C26.9632 29.7658 22.9478 33.664 17.9902 33.6734ZM17.9902 19.2975C14.7704 19.2975 12.1602 21.8295 12.1602 24.9529C12.1602 28.0763 14.7704 30.6082 17.9902 30.6082C21.2101 30.6082 23.8204 28.0763 23.8204 24.9529C23.8128 21.8325 21.207 19.3048 17.9902 19.2975ZM27.3185 17.9534C26.1629 17.9493 25.2292 17.0384 25.2313 15.9175C25.2334 14.7967 26.1707 13.8891 27.3262 13.8891C28.4816 13.8891 29.4188 14.7966 29.4212 15.9175C29.4216 16.4583 29.2 16.977 28.8055 17.359C28.411 17.741 27.8758 17.9549 27.3185 17.9534Z" fill="white" fill-opacity="0.7"/>
</g>
<defs>
<clipPath id="clip0_74_109">
<rect width="45" height="42" fill="white" transform="translate(0.5)"/>
</clipPath>
</defs>
</svg>
